<?xml version="1.0" encoding="UTF-8" standalone="no"?>
<!DOCTYPE svg PUBLIC "-//W3C//DTD SVG 1.1//EN"
 "http://www.w3.org/Graphics/SVG/1.1/DTD/svg11.dtd">
<!-- Generated by graphviz version 5.0.0 (20220707.1540)
 -->
<!-- Title: dependencies Pages: 1 -->
<svg width="2339pt" height="247pt"
 viewBox="0.00 0.00 2339.00 246.80" xmlns="http://www.w3.org/2000/svg" xmlns:xlink="http://www.w3.org/1999/xlink">
<g id="graph0" class="graph" transform="scale(1 1) rotate(0) translate(4 242.8)">
<title>dependencies</title>
<polygon fill="white" stroke="transparent" points="-4,4 -4,-242.8 2335,-242.8 2335,4 -4,4"/>
<text text-anchor="middle" x="1165.5" y="-8.2" font-family="sans-serif" font-size="14.00">dependencies</text>
<g id="clust1" class="cluster">
<title>cluster_PoslibraryModule</title>
<polygon fill="none" stroke="black" stroke-dasharray="1,5" points="8,-32.8 8,-230.8 2323,-230.8 2323,-32.8 8,-32.8"/>
</g>
<g id="clust2" class="cluster">
<title>cluster_PoslibraryModule_declarations</title>
<polygon fill="none" stroke="black" points="2161,-40.8 2161,-92.8 2315,-92.8 2315,-40.8 2161,-40.8"/>
</g>
<g id="clust5" class="cluster">
<title>cluster_PoslibraryModule_exports</title>
<polygon fill="none" stroke="black" points="1100,-170.8 1100,-222.8 1258,-222.8 1258,-170.8 1100,-170.8"/>
</g>
<g id="clust7" class="cluster">
<title>cluster_PoslibraryModule_providers</title>
<polygon fill="none" stroke="black" points="16,-40.8 16,-92.8 2153,-92.8 2153,-40.8 16,-40.8"/>
</g>
<!-- PoslibraryComponent -->
<g id="node1" class="node">
<title>PoslibraryComponent</title>
<polygon fill="#ffffb3" stroke="black" points="2307.38,-84.8 2168.62,-84.8 2168.62,-48.8 2307.38,-48.8 2307.38,-84.8"/>
<text text-anchor="middle" x="2238" y="-62.6" font-family="Times,serif" font-size="14.00">PoslibraryComponent</text>
</g>
<!-- PoslibraryModule -->
<g id="node2" class="node">
<title>PoslibraryModule</title>
<polygon fill="#8dd3c7" stroke="black" points="1237.6,-149.8 1234.6,-153.8 1213.6,-153.8 1210.6,-149.8 1120.4,-149.8 1120.4,-113.8 1237.6,-113.8 1237.6,-149.8"/>
<text text-anchor="middle" x="1179" y="-127.6" font-family="Times,serif" font-size="14.00">PoslibraryModule</text>
</g>
<!-- PoslibraryComponent&#45;&gt;PoslibraryModule -->
<g id="edge1" class="edge">
<title>PoslibraryComponent&#45;&gt;PoslibraryModule</title>
<path fill="none" stroke="black" d="M2238,-85.12C2238,-108.46 2238,-145.8 2238,-145.8 2238,-145.8 1247.82,-145.8 1247.82,-145.8"/>
<polygon fill="black" stroke="black" points="1247.82,-142.3 1237.82,-145.8 1247.82,-149.3 1247.82,-142.3"/>
</g>
<!-- PoslibraryComponent  -->
<g id="node3" class="node">
<title>PoslibraryComponent </title>
<polygon fill="#fb8072" stroke="black" points="1250.38,-214.8 1107.62,-214.8 1107.62,-178.8 1250.38,-178.8 1250.38,-214.8"/>
<text text-anchor="middle" x="1179" y="-192.6" font-family="Times,serif" font-size="14.00">PoslibraryComponent </text>
</g>
<!-- PoslibraryModule&#45;&gt;PoslibraryComponent  -->
<g id="edge2" class="edge">
<title>PoslibraryModule&#45;&gt;PoslibraryComponent </title>
<path fill="none" stroke="black" stroke-dasharray="5,2" d="M1179,-149.91C1179,-149.91 1179,-168.79 1179,-168.79"/>
<polygon fill="black" stroke="black" points="1175.5,-168.79 1179,-178.79 1182.5,-168.79 1175.5,-168.79"/>
</g>
<!-- CatalogService -->
<g id="node4" class="node">
<title>CatalogService</title>
<ellipse fill="#fdb462" stroke="black" cx="2075" cy="-66.8" rx="70.06" ry="18"/>
<text text-anchor="middle" x="2075" y="-62.6" font-family="Times,serif" font-size="14.00">CatalogService</text>
</g>
<!-- CatalogService&#45;&gt;PoslibraryModule -->
<g id="edge3" class="edge">
<title>CatalogService&#45;&gt;PoslibraryModule</title>
<path fill="none" stroke="black" d="M2075,-85.09C2075,-107.01 2075,-140.8 2075,-140.8 2075,-140.8 1247.79,-140.8 1247.79,-140.8"/>
<polygon fill="black" stroke="black" points="1247.79,-137.3 1237.79,-140.8 1247.79,-144.3 1247.79,-137.3"/>
</g>
<!-- DataService -->
<g id="node5" class="node">
<title>DataService</title>
<ellipse fill="#fdb462" stroke="black" cx="1929" cy="-66.8" rx="58.45" ry="18"/>
<text text-anchor="middle" x="1929" y="-62.6" font-family="Times,serif" font-size="14.00">DataService</text>
</g>
<!-- DataService&#45;&gt;PoslibraryModule -->
<g id="edge4" class="edge">
<title>DataService&#45;&gt;PoslibraryModule</title>
<path fill="none" stroke="black" d="M1929,-84.83C1929,-105.57 1929,-136.8 1929,-136.8 1929,-136.8 1247.85,-136.8 1247.85,-136.8"/>
<polygon fill="black" stroke="black" points="1247.85,-133.3 1237.85,-136.8 1247.85,-140.3 1247.85,-133.3"/>
</g>
<!-- DatabaseService -->
<g id="node6" class="node">
<title>DatabaseService</title>
<ellipse fill="#fdb462" stroke="black" cx="1777" cy="-66.8" rx="75.26" ry="18"/>
<text text-anchor="middle" x="1777" y="-62.6" font-family="Times,serif" font-size="14.00">DatabaseService</text>
</g>
<!-- DatabaseService&#45;&gt;PoslibraryModule -->
<g id="edge5" class="edge">
<title>DatabaseService&#45;&gt;PoslibraryModule</title>
<path fill="none" stroke="black" d="M1777,-84.91C1777,-104.14 1777,-131.8 1777,-131.8 1777,-131.8 1247.7,-131.8 1247.7,-131.8"/>
<polygon fill="black" stroke="black" points="1247.7,-128.3 1237.7,-131.8 1247.7,-135.3 1247.7,-128.3"/>
</g>
<!-- DefaultService -->
<g id="node7" class="node">
<title>DefaultService</title>
<ellipse fill="#fdb462" stroke="black" cx="1615" cy="-66.8" rx="68.9" ry="18"/>
<text text-anchor="middle" x="1615" y="-62.6" font-family="Times,serif" font-size="14.00">DefaultService</text>
</g>
<!-- DefaultService&#45;&gt;PoslibraryModule -->
<g id="edge6" class="edge">
<title>DefaultService&#45;&gt;PoslibraryModule</title>
<path fill="none" stroke="black" d="M1615,-85.1C1615,-103.07 1615,-127.8 1615,-127.8 1615,-127.8 1247.8,-127.8 1247.8,-127.8"/>
<polygon fill="black" stroke="black" points="1247.8,-124.3 1237.8,-127.8 1247.8,-131.3 1247.8,-124.3"/>
</g>
<!-- InitDataService -->
<g id="node8" class="node">
<title>InitDataService</title>
<ellipse fill="#fdb462" stroke="black" cx="1456" cy="-66.8" rx="71.77" ry="18"/>
<text text-anchor="middle" x="1456" y="-62.6" font-family="Times,serif" font-size="14.00">InitDataService</text>
</g>
<!-- InitDataService&#45;&gt;PoslibraryModule -->
<g id="edge7" class="edge">
<title>InitDataService&#45;&gt;PoslibraryModule</title>
<path fill="none" stroke="black" d="M1456,-84.83C1456,-101.2 1456,-122.8 1456,-122.8 1456,-122.8 1247.74,-122.8 1247.74,-122.8"/>
<polygon fill="black" stroke="black" points="1247.74,-119.3 1237.74,-122.8 1247.74,-126.3 1247.74,-119.3"/>
</g>
<!-- InitService -->
<g id="node9" class="node">
<title>InitService</title>
<ellipse fill="#fdb462" stroke="black" cx="1313" cy="-66.8" rx="53.31" ry="18"/>
<text text-anchor="middle" x="1313" y="-62.6" font-family="Times,serif" font-size="14.00">InitService</text>
</g>
<!-- InitService&#45;&gt;PoslibraryModule -->
<g id="edge8" class="edge">
<title>InitService&#45;&gt;PoslibraryModule</title>
<path fill="none" stroke="black" d="M1313,-84.99C1313,-99.98 1313,-118.8 1313,-118.8 1313,-118.8 1247.77,-118.8 1247.77,-118.8"/>
<polygon fill="black" stroke="black" points="1247.77,-115.3 1237.77,-118.8 1247.77,-122.3 1247.77,-115.3"/>
</g>
<!-- LoginService -->
<g id="node10" class="node">
<title>LoginService</title>
<ellipse fill="#fdb462" stroke="black" cx="1179" cy="-66.8" rx="63.12" ry="18"/>
<text text-anchor="middle" x="1179" y="-62.6" font-family="Times,serif" font-size="14.00">LoginService</text>
</g>
<!-- LoginService&#45;&gt;PoslibraryModule -->
<g id="edge9" class="edge">
<title>LoginService&#45;&gt;PoslibraryModule</title>
<path fill="none" stroke="black" d="M1179,-84.91C1179,-84.91 1179,-103.79 1179,-103.79"/>
<polygon fill="black" stroke="black" points="1175.5,-103.79 1179,-113.79 1182.5,-103.79 1175.5,-103.79"/>
</g>
<!-- OrderService -->
<g id="node11" class="node">
<title>OrderService</title>
<ellipse fill="#fdb462" stroke="black" cx="1035" cy="-66.8" rx="62.53" ry="18"/>
<text text-anchor="middle" x="1035" y="-62.6" font-family="Times,serif" font-size="14.00">OrderService</text>
</g>
<!-- OrderService&#45;&gt;PoslibraryModule -->
<g id="edge10" class="edge">
<title>OrderService&#45;&gt;PoslibraryModule</title>
<path fill="none" stroke="black" d="M1035,-84.99C1035,-99.98 1035,-118.8 1035,-118.8 1035,-118.8 1110.43,-118.8 1110.43,-118.8"/>
<polygon fill="black" stroke="black" points="1110.43,-122.3 1120.43,-118.8 1110.43,-115.3 1110.43,-122.3"/>
</g>
<!-- PaymentService -->
<g id="node12" class="node">
<title>PaymentService</title>
<ellipse fill="#fdb462" stroke="black" cx="881" cy="-66.8" rx="73.58" ry="18"/>
<text text-anchor="middle" x="881" y="-62.6" font-family="Times,serif" font-size="14.00">PaymentService</text>
</g>
<!-- PaymentService&#45;&gt;PoslibraryModule -->
<g id="edge11" class="edge">
<title>PaymentService&#45;&gt;PoslibraryModule</title>
<path fill="none" stroke="black" d="M881,-84.83C881,-101.2 881,-122.8 881,-122.8 881,-122.8 1110.12,-122.8 1110.12,-122.8"/>
<polygon fill="black" stroke="black" points="1110.12,-126.3 1120.12,-122.8 1110.12,-119.3 1110.12,-126.3"/>
</g>
<!-- PlaceService -->
<g id="node13" class="node">
<title>PlaceService</title>
<ellipse fill="#fdb462" stroke="black" cx="728" cy="-66.8" rx="60.81" ry="18"/>
<text text-anchor="middle" x="728" y="-62.6" font-family="Times,serif" font-size="14.00">PlaceService</text>
</g>
<!-- PlaceService&#45;&gt;PoslibraryModule -->
<g id="edge12" class="edge">
<title>PlaceService&#45;&gt;PoslibraryModule</title>
<path fill="none" stroke="black" d="M728,-85.1C728,-103.07 728,-127.8 728,-127.8 728,-127.8 1110.04,-127.8 1110.04,-127.8"/>
<polygon fill="black" stroke="black" points="1110.04,-131.3 1120.04,-127.8 1110.04,-124.3 1110.04,-131.3"/>
</g>
<!-- QrcodeLoginService -->
<g id="node14" class="node">
<title>QrcodeLoginService</title>
<ellipse fill="#fdb462" stroke="black" cx="558" cy="-66.8" rx="91.46" ry="18"/>
<text text-anchor="middle" x="558" y="-62.6" font-family="Times,serif" font-size="14.00">QrcodeLoginService</text>
</g>
<!-- QrcodeLoginService&#45;&gt;PoslibraryModule -->
<g id="edge13" class="edge">
<title>QrcodeLoginService&#45;&gt;PoslibraryModule</title>
<path fill="none" stroke="black" d="M558,-84.91C558,-104.14 558,-131.8 558,-131.8 558,-131.8 1110.3,-131.8 1110.3,-131.8"/>
<polygon fill="black" stroke="black" points="1110.3,-135.3 1120.3,-131.8 1110.3,-128.3 1110.3,-135.3"/>
</g>
<!-- ReceiptService -->
<g id="node15" class="node">
<title>ReceiptService</title>
<ellipse fill="#fdb462" stroke="black" cx="379" cy="-66.8" rx="69.47" ry="18"/>
<text text-anchor="middle" x="379" y="-62.6" font-family="Times,serif" font-size="14.00">ReceiptService</text>
</g>
<!-- ReceiptService&#45;&gt;PoslibraryModule -->
<g id="edge14" class="edge">
<title>ReceiptService&#45;&gt;PoslibraryModule</title>
<path fill="none" stroke="black" d="M379,-84.83C379,-105.57 379,-136.8 379,-136.8 379,-136.8 1110.17,-136.8 1110.17,-136.8"/>
<polygon fill="black" stroke="black" points="1110.17,-140.3 1120.17,-136.8 1110.17,-133.3 1110.17,-140.3"/>
</g>
<!-- RolesService -->
<g id="node16" class="node">
<title>RolesService</title>
<ellipse fill="#fdb462" stroke="black" cx="230" cy="-66.8" rx="61.98" ry="18"/>
<text text-anchor="middle" x="230" y="-62.6" font-family="Times,serif" font-size="14.00">RolesService</text>
</g>
<!-- RolesService&#45;&gt;PoslibraryModule -->
<g id="edge15" class="edge">
<title>RolesService&#45;&gt;PoslibraryModule</title>
<path fill="none" stroke="black" d="M230,-85.09C230,-107.01 230,-140.8 230,-140.8 230,-140.8 1110.35,-140.8 1110.35,-140.8"/>
<polygon fill="black" stroke="black" points="1110.35,-144.3 1120.35,-140.8 1110.35,-137.3 1110.35,-144.3"/>
</g>
<!-- UOMService -->
<g id="node17" class="node">
<title>UOMService</title>
<ellipse fill="#fdb462" stroke="black" cx="87" cy="-66.8" rx="62.56" ry="18"/>
<text text-anchor="middle" x="87" y="-62.6" font-family="Times,serif" font-size="14.00">UOMService</text>
</g>
<!-- UOMService&#45;&gt;PoslibraryModule -->
<g id="edge16" class="edge">
<title>UOMService&#45;&gt;PoslibraryModule</title>
<path fill="none" stroke="black" d="M87,-85.12C87,-108.46 87,-145.8 87,-145.8 87,-145.8 1110.29,-145.8 1110.29,-145.8"/>
<polygon fill="black" stroke="black" points="1110.29,-149.3 1120.29,-145.8 1110.29,-142.3 1110.29,-149.3"/>
</g>
</g>
</svg>
