<?xml version="1.0" encoding="UTF-8" standalone="no"?>
<!DOCTYPE svg PUBLIC "-//W3C//DTD SVG 1.1//EN"
 "http://www.w3.org/Graphics/SVG/1.1/DTD/svg11.dtd">
<!-- Generated by graphviz version 5.0.0 (20220707.1540)
 -->
<!-- Title: dependencies Pages: 1 -->
<svg width="2339pt" height="247pt"
 viewBox="0.00 0.00 2339.00 246.80" xmlns="http://www.w3.org/2000/svg" xmlns:xlink="http://www.w3.org/1999/xlink">
<g id="graph0" class="graph" transform="scale(1 1) rotate(0) translate(4 242.8)">
<title>dependencies</title>
<polygon fill="white" stroke="transparent" points="-4,4 -4,-242.8 2335,-242.8 2335,4 -4,4"/>
<text text-anchor="middle" x="1165.5" y="-8.2" font-family="sans-serif" font-size="14.00">dependencies</text>
<g id="clust1" class="cluster">
<title>cluster_PoslibraryModule</title>
<polygon fill="none" stroke="black" stroke-dasharray="1,5" points="8,-32.8 8,-230.8 2323,-230.8 2323,-32.8 8,-32.8"/>
</g>
<g id="clust5" class="cluster">
<title>cluster_PoslibraryModule_exports</title>
<polygon fill="none" stroke="black" points="1118,-170.8 1118,-222.8 1276,-222.8 1276,-170.8 1118,-170.8"/>
</g>
<g id="clust7" class="cluster">
<title>cluster_PoslibraryModule_providers</title>
<polygon fill="none" stroke="black" points="178,-40.8 178,-92.8 2315,-92.8 2315,-40.8 178,-40.8"/>
</g>
<g id="clust2" class="cluster">
<title>cluster_PoslibraryModule_declarations</title>
<polygon fill="none" stroke="black" points="16,-40.8 16,-92.8 170,-92.8 170,-40.8 16,-40.8"/>
</g>
<!-- PoslibraryComponent -->
<g id="node1" class="node">
<title>PoslibraryComponent</title>
<polygon fill="#ffffb3" stroke="black" points="162.38,-84.8 23.62,-84.8 23.62,-48.8 162.38,-48.8 162.38,-84.8"/>
<text text-anchor="middle" x="93" y="-62.6" font-family="Times,serif" font-size="14.00">PoslibraryComponent</text>
</g>
<!-- PoslibraryModule -->
<g id="node2" class="node">
<title>PoslibraryModule</title>
<polygon fill="#8dd3c7" stroke="black" points="1255.6,-149.8 1252.6,-153.8 1231.6,-153.8 1228.6,-149.8 1138.4,-149.8 1138.4,-113.8 1255.6,-113.8 1255.6,-149.8"/>
<text text-anchor="middle" x="1197" y="-127.6" font-family="Times,serif" font-size="14.00">PoslibraryModule</text>
</g>
<!-- PoslibraryComponent&#45;&gt;PoslibraryModule -->
<g id="edge1" class="edge">
<title>PoslibraryComponent&#45;&gt;PoslibraryModule</title>
<path fill="none" stroke="black" d="M93,-85.12C93,-108.46 93,-145.8 93,-145.8 93,-145.8 1128.42,-145.8 1128.42,-145.8"/>
<polygon fill="black" stroke="black" points="1128.42,-149.3 1138.42,-145.8 1128.42,-142.3 1128.42,-149.3"/>
</g>
<!-- PoslibraryComponent  -->
<g id="node3" class="node">
<title>PoslibraryComponent </title>
<polygon fill="#fb8072" stroke="black" points="1268.38,-214.8 1125.62,-214.8 1125.62,-178.8 1268.38,-178.8 1268.38,-214.8"/>
<text text-anchor="middle" x="1197" y="-192.6" font-family="Times,serif" font-size="14.00">PoslibraryComponent </text>
</g>
<!-- PoslibraryModule&#45;&gt;PoslibraryComponent  -->
<g id="edge2" class="edge">
<title>PoslibraryModule&#45;&gt;PoslibraryComponent </title>
<path fill="none" stroke="black" stroke-dasharray="5,2" d="M1197,-149.91C1197,-149.91 1197,-168.79 1197,-168.79"/>
<polygon fill="black" stroke="black" points="1193.5,-168.79 1197,-178.79 1200.5,-168.79 1193.5,-168.79"/>
</g>
<!-- CatalogService -->
<g id="node4" class="node">
<title>CatalogService</title>
<ellipse fill="#fdb462" stroke="black" cx="2237" cy="-66.8" rx="70.06" ry="18"/>
<text text-anchor="middle" x="2237" y="-62.6" font-family="Times,serif" font-size="14.00">CatalogService</text>
</g>
<!-- CatalogService&#45;&gt;PoslibraryModule -->
<g id="edge3" class="edge">
<title>CatalogService&#45;&gt;PoslibraryModule</title>
<path fill="none" stroke="black" d="M2237,-85.12C2237,-108.46 2237,-145.8 2237,-145.8 2237,-145.8 1265.89,-145.8 1265.89,-145.8"/>
<polygon fill="black" stroke="black" points="1265.89,-142.3 1255.89,-145.8 1265.89,-149.3 1265.89,-142.3"/>
</g>
<!-- DataService -->
<g id="node5" class="node">
<title>DataService</title>
<ellipse fill="#fdb462" stroke="black" cx="2091" cy="-66.8" rx="58.45" ry="18"/>
<text text-anchor="middle" x="2091" y="-62.6" font-family="Times,serif" font-size="14.00">DataService</text>
</g>
<!-- DataService&#45;&gt;PoslibraryModule -->
<g id="edge4" class="edge">
<title>DataService&#45;&gt;PoslibraryModule</title>
<path fill="none" stroke="black" d="M2091,-85.09C2091,-107.01 2091,-140.8 2091,-140.8 2091,-140.8 1265.66,-140.8 1265.66,-140.8"/>
<polygon fill="black" stroke="black" points="1265.66,-137.3 1255.66,-140.8 1265.66,-144.3 1265.66,-137.3"/>
</g>
<!-- DatabaseService -->
<g id="node6" class="node">
<title>DatabaseService</title>
<ellipse fill="#fdb462" stroke="black" cx="1939" cy="-66.8" rx="75.26" ry="18"/>
<text text-anchor="middle" x="1939" y="-62.6" font-family="Times,serif" font-size="14.00">DatabaseService</text>
</g>
<!-- DatabaseService&#45;&gt;PoslibraryModule -->
<g id="edge5" class="edge">
<title>DatabaseService&#45;&gt;PoslibraryModule</title>
<path fill="none" stroke="black" d="M1939,-84.83C1939,-105.57 1939,-136.8 1939,-136.8 1939,-136.8 1265.84,-136.8 1265.84,-136.8"/>
<polygon fill="black" stroke="black" points="1265.84,-133.3 1255.84,-136.8 1265.84,-140.3 1265.84,-133.3"/>
</g>
<!-- DefaultService -->
<g id="node7" class="node">
<title>DefaultService</title>
<ellipse fill="#fdb462" stroke="black" cx="1777" cy="-66.8" rx="68.9" ry="18"/>
<text text-anchor="middle" x="1777" y="-62.6" font-family="Times,serif" font-size="14.00">DefaultService</text>
</g>
<!-- DefaultService&#45;&gt;PoslibraryModule -->
<g id="edge6" class="edge">
<title>DefaultService&#45;&gt;PoslibraryModule</title>
<path fill="none" stroke="black" d="M1777,-84.91C1777,-104.14 1777,-131.8 1777,-131.8 1777,-131.8 1265.81,-131.8 1265.81,-131.8"/>
<polygon fill="black" stroke="black" points="1265.81,-128.3 1255.81,-131.8 1265.81,-135.3 1265.81,-128.3"/>
</g>
<!-- InitDataService -->
<g id="node8" class="node">
<title>InitDataService</title>
<ellipse fill="#fdb462" stroke="black" cx="1618" cy="-66.8" rx="71.77" ry="18"/>
<text text-anchor="middle" x="1618" y="-62.6" font-family="Times,serif" font-size="14.00">InitDataService</text>
</g>
<!-- InitDataService&#45;&gt;PoslibraryModule -->
<g id="edge7" class="edge">
<title>InitDataService&#45;&gt;PoslibraryModule</title>
<path fill="none" stroke="black" d="M1618,-85.1C1618,-103.07 1618,-127.8 1618,-127.8 1618,-127.8 1265.98,-127.8 1265.98,-127.8"/>
<polygon fill="black" stroke="black" points="1265.98,-124.3 1255.98,-127.8 1265.98,-131.3 1265.98,-124.3"/>
</g>
<!-- InitService -->
<g id="node9" class="node">
<title>InitService</title>
<ellipse fill="#fdb462" stroke="black" cx="1475" cy="-66.8" rx="53.31" ry="18"/>
<text text-anchor="middle" x="1475" y="-62.6" font-family="Times,serif" font-size="14.00">InitService</text>
</g>
<!-- InitService&#45;&gt;PoslibraryModule -->
<g id="edge8" class="edge">
<title>InitService&#45;&gt;PoslibraryModule</title>
<path fill="none" stroke="black" d="M1475,-84.83C1475,-101.2 1475,-122.8 1475,-122.8 1475,-122.8 1265.62,-122.8 1265.62,-122.8"/>
<polygon fill="black" stroke="black" points="1265.62,-119.3 1255.62,-122.8 1265.62,-126.3 1265.62,-119.3"/>
</g>
<!-- LoginService -->
<g id="node10" class="node">
<title>LoginService</title>
<ellipse fill="#fdb462" stroke="black" cx="1341" cy="-66.8" rx="63.12" ry="18"/>
<text text-anchor="middle" x="1341" y="-62.6" font-family="Times,serif" font-size="14.00">LoginService</text>
</g>
<!-- LoginService&#45;&gt;PoslibraryModule -->
<g id="edge9" class="edge">
<title>LoginService&#45;&gt;PoslibraryModule</title>
<path fill="none" stroke="black" d="M1341,-84.99C1341,-99.98 1341,-118.8 1341,-118.8 1341,-118.8 1265.57,-118.8 1265.57,-118.8"/>
<polygon fill="black" stroke="black" points="1265.57,-115.3 1255.57,-118.8 1265.57,-122.3 1265.57,-115.3"/>
</g>
<!-- OrderService -->
<g id="node11" class="node">
<title>OrderService</title>
<ellipse fill="#fdb462" stroke="black" cx="1197" cy="-66.8" rx="62.53" ry="18"/>
<text text-anchor="middle" x="1197" y="-62.6" font-family="Times,serif" font-size="14.00">OrderService</text>
</g>
<!-- OrderService&#45;&gt;PoslibraryModule -->
<g id="edge10" class="edge">
<title>OrderService&#45;&gt;PoslibraryModule</title>
<path fill="none" stroke="black" d="M1197,-84.91C1197,-84.91 1197,-103.79 1197,-103.79"/>
<polygon fill="black" stroke="black" points="1193.5,-103.79 1197,-113.79 1200.5,-103.79 1193.5,-103.79"/>
</g>
<!-- PaymentService -->
<g id="node12" class="node">
<title>PaymentService</title>
<ellipse fill="#fdb462" stroke="black" cx="1043" cy="-66.8" rx="73.58" ry="18"/>
<text text-anchor="middle" x="1043" y="-62.6" font-family="Times,serif" font-size="14.00">PaymentService</text>
</g>
<!-- PaymentService&#45;&gt;PoslibraryModule -->
<g id="edge11" class="edge">
<title>PaymentService&#45;&gt;PoslibraryModule</title>
<path fill="none" stroke="black" d="M1043,-84.99C1043,-99.98 1043,-118.8 1043,-118.8 1043,-118.8 1128.34,-118.8 1128.34,-118.8"/>
<polygon fill="black" stroke="black" points="1128.34,-122.3 1138.34,-118.8 1128.34,-115.3 1128.34,-122.3"/>
</g>
<!-- PlaceService -->
<g id="node13" class="node">
<title>PlaceService</title>
<ellipse fill="#fdb462" stroke="black" cx="890" cy="-66.8" rx="60.81" ry="18"/>
<text text-anchor="middle" x="890" y="-62.6" font-family="Times,serif" font-size="14.00">PlaceService</text>
</g>
<!-- PlaceService&#45;&gt;PoslibraryModule -->
<g id="edge12" class="edge">
<title>PlaceService&#45;&gt;PoslibraryModule</title>
<path fill="none" stroke="black" d="M890,-84.83C890,-101.2 890,-122.8 890,-122.8 890,-122.8 1128.17,-122.8 1128.17,-122.8"/>
<polygon fill="black" stroke="black" points="1128.17,-126.3 1138.17,-122.8 1128.17,-119.3 1128.17,-126.3"/>
</g>
<!-- QrcodeLoginService -->
<g id="node14" class="node">
<title>QrcodeLoginService</title>
<ellipse fill="#fdb462" stroke="black" cx="720" cy="-66.8" rx="91.46" ry="18"/>
<text text-anchor="middle" x="720" y="-62.6" font-family="Times,serif" font-size="14.00">QrcodeLoginService</text>
</g>
<!-- QrcodeLoginService&#45;&gt;PoslibraryModule -->
<g id="edge13" class="edge">
<title>QrcodeLoginService&#45;&gt;PoslibraryModule</title>
<path fill="none" stroke="black" d="M720,-85.1C720,-103.07 720,-127.8 720,-127.8 720,-127.8 1128.03,-127.8 1128.03,-127.8"/>
<polygon fill="black" stroke="black" points="1128.03,-131.3 1138.03,-127.8 1128.03,-124.3 1128.03,-131.3"/>
</g>
<!-- ReceiptService -->
<g id="node15" class="node">
<title>ReceiptService</title>
<ellipse fill="#fdb462" stroke="black" cx="541" cy="-66.8" rx="69.47" ry="18"/>
<text text-anchor="middle" x="541" y="-62.6" font-family="Times,serif" font-size="14.00">ReceiptService</text>
</g>
<!-- ReceiptService&#45;&gt;PoslibraryModule -->
<g id="edge14" class="edge">
<title>ReceiptService&#45;&gt;PoslibraryModule</title>
<path fill="none" stroke="black" d="M541,-84.91C541,-104.14 541,-131.8 541,-131.8 541,-131.8 1128.21,-131.8 1128.21,-131.8"/>
<polygon fill="black" stroke="black" points="1128.21,-135.3 1138.21,-131.8 1128.21,-128.3 1128.21,-135.3"/>
</g>
<!-- RolesService -->
<g id="node16" class="node">
<title>RolesService</title>
<ellipse fill="#fdb462" stroke="black" cx="392" cy="-66.8" rx="61.98" ry="18"/>
<text text-anchor="middle" x="392" y="-62.6" font-family="Times,serif" font-size="14.00">RolesService</text>
</g>
<!-- RolesService&#45;&gt;PoslibraryModule -->
<g id="edge15" class="edge">
<title>RolesService&#45;&gt;PoslibraryModule</title>
<path fill="none" stroke="black" d="M392,-84.83C392,-105.57 392,-136.8 392,-136.8 392,-136.8 1128.13,-136.8 1128.13,-136.8"/>
<polygon fill="black" stroke="black" points="1128.13,-140.3 1138.13,-136.8 1128.13,-133.3 1128.13,-140.3"/>
</g>
<!-- UOMService -->
<g id="node17" class="node">
<title>UOMService</title>
<ellipse fill="#fdb462" stroke="black" cx="249" cy="-66.8" rx="62.56" ry="18"/>
<text text-anchor="middle" x="249" y="-62.6" font-family="Times,serif" font-size="14.00">UOMService</text>
</g>
<!-- UOMService&#45;&gt;PoslibraryModule -->
<g id="edge16" class="edge">
<title>UOMService&#45;&gt;PoslibraryModule</title>
<path fill="none" stroke="black" d="M249,-85.09C249,-107.01 249,-140.8 249,-140.8 249,-140.8 1128.41,-140.8 1128.41,-140.8"/>
<polygon fill="black" stroke="black" points="1128.41,-144.3 1138.41,-140.8 1128.41,-137.3 1128.41,-144.3"/>
</g>
</g>
</svg>
